<svg xmlns="http://www.w3.org/2000/svg" width="240" height="432" viewBox="0 0 240 432">
  <defs>
    <symbol id="p0" viewBox="0 0 48 48">
      <rect x="0" y="0" width="48" height="48" fill="currentColor"/>
    </symbol>
    <symbol id="p1" viewBox="0 0 48 48">
      <circle cx="24" cy="24" r="24" fill="currentColor"/>
    </symbol>
    <symbol id="p2" viewBox="0 0 48 48">
      <path d="M 48 48 A 24 24 0 0 0 0 48 Z" fill="currentColor"/>
    </symbol>
    <symbol id="p3" viewBox="0 0 48 48">
      <path d="M 0 0 A 24 24 0 0 0 48 0 Z" fill="currentColor"/>
    </symbol>
    <symbol id="p4" viewBox="0 0 48 48">
      <path d="M 0 48 A 24 24 0 0 0 0 0 Z" fill="currentColor"/>
    </symbol>
    <symbol id="p5" viewBox="0 0 48 48">
      <path d="M 48 0 A 24 24 0 0 0 48 48 Z" fill="currentColor"/>
    </symbol>
    <symbol id="p6" viewBox="0 0 48 48">
      <path d="M 48 0 L 48 48 A 48 48 0 0 1 0 0 Z" fill="currentColor"/>
    </symbol>
    <symbol id="p7" viewBox="0 0 48 48">
      <path d="M 48 48 L 0 48 A 48 48 0 0 1 48 0 Z" fill="currentColor"/>
    </symbol>
    <symbol id="p8" viewBox="0 0 48 48">
      <path d="M 0 48 L 0 0 A 48 48 0 0 1 48 48 Z" fill="currentColor"/>
    </symbol>
    <symbol id="p9" viewBox="0 0 48 48">
      <path d="M 0 0 L 48 0 A 48 48 0 0 1 0 48 Z" fill="currentColor"/>
    </symbol>
  </defs>

  <g transform="translate(0,0)" style="color: rgb(19,6,245)"><use href="#p7" x="0" y="0" width="48" height="48"/></g>
  <g transform="translate(48,0)" style="color: rgb(115,136,202)"><use href="#p0" x="0" y="0" width="48" height="48"/></g>
  <g transform="translate(96,0)" style="color: rgb(77,126,138)"><use href="#p0" x="0" y="0" width="48" height="48"/></g>
  <g transform="translate(144,0)" style="color: rgb(12,132,26)"><use href="#p0" x="0" y="0" width="48" height="48"/></g>
  <g transform="translate(192,0)" style="color: rgb(220,2,141)"><use href="#p4" x="0" y="0" width="48" height="48"/></g>
  <g transform="translate(0,48)" style="color: rgb(90,247,87)"><use href="#p0" x="0" y="0" width="48" height="48"/></g>
  <g transform="translate(0,96)" style="color: rgb(83,52,179)"><use href="#p6" x="0" y="0" width="48" height="48"/></g>
  <g transform="translate(48,96)" style="color: rgb(100,99,96)"><use href="#p0" x="0" y="0" width="48" height="48"/></g>
  <g transform="translate(96,96)" style="color: rgb(103,177,252)"><use href="#p0" x="0" y="0" width="48" height="48"/></g>
  <g transform="translate(144,96)" style="color: rgb(161,217,225)"><use href="#p4" x="0" y="0" width="48" height="48"/></g>
  <g transform="translate(192,144)" style="color: rgb(106,29,83)"><use href="#p2" x="0" y="0" width="48" height="48"/></g>
  <g transform="translate(192,192)" style="color: rgb(217,182,242)"><use href="#p0" x="0" y="0" width="48" height="48"/></g>
  <g transform="translate(0,240)" style="color: rgb(145,87,14)"><use href="#p1" x="0" y="0" width="48" height="48"/></g>
  <g transform="translate(192,240)" style="color: rgb(62,204,231)"><use href="#p3" x="0" y="0" width="48" height="48"/></g>
  <g transform="translate(48,288)" style="color: rgb(64,82,248)"><use href="#p5" x="0" y="0" width="48" height="48"/></g>
  <g transform="translate(96,288)" style="color: rgb(159,139,92)"><use href="#p0" x="0" y="0" width="48" height="48"/></g>
  <g transform="translate(144,288)" style="color: rgb(74,77,76)"><use href="#p4" x="0" y="0" width="48" height="48"/></g>
</svg>
