<svg xmlns="http://www.w3.org/2000/svg" width="240" height="432" viewBox="0 0 240 432">
  <defs>
    <symbol id="p0" viewBox="0 0 48 48">
      <rect x="0" y="0" width="48" height="48" fill="currentColor"/>
    </symbol>
    <symbol id="p1" viewBox="0 0 48 48">
      <circle cx="24" cy="24" r="24" fill="currentColor"/>
    </symbol>
    <symbol id="p2" viewBox="0 0 48 48">
      <path d="M 48 48 A 24 24 0 0 0 0 48 Z" fill="currentColor"/>
    </symbol>
    <symbol id="p3" viewBox="0 0 48 48">
      <path d="M 0 0 A 24 24 0 0 0 48 0 Z" fill="currentColor"/>
    </symbol>
    <symbol id="p4" viewBox="0 0 48 48">
      <path d="M 0 48 A 24 24 0 0 0 0 0 Z" fill="currentColor"/>
    </symbol>
    <symbol id="p5" viewBox="0 0 48 48">
      <path d="M 48 0 A 24 24 0 0 0 48 48 Z" fill="currentColor"/>
    </symbol>
    <symbol id="p6" viewBox="0 0 48 48">
      <path d="M 48 0 L 48 48 A 48 48 0 0 1 0 0 Z" fill="currentColor"/>
    </symbol>
    <symbol id="p7" viewBox="0 0 48 48">
      <path d="M 48 48 L 0 48 A 48 48 0 0 1 48 0 Z" fill="currentColor"/>
    </symbol>
    <symbol id="p8" viewBox="0 0 48 48">
      <path d="M 0 48 L 0 0 A 48 48 0 0 1 48 48 Z" fill="currentColor"/>
    </symbol>
    <symbol id="p9" viewBox="0 0 48 48">
      <path d="M 0 0 L 48 0 A 48 48 0 0 1 0 48 Z" fill="currentColor"/>
    </symbol>
  </defs>

  <g transform="translate(48,96)" style="color: rgb(75,117,43)"><use href="#p5" x="0" y="0" width="48" height="48"/></g>
  <g transform="translate(96,96)" style="color: rgb(243,208,136)"><use href="#p0" x="0" y="0" width="48" height="48"/></g>
  <g transform="translate(144,96)" style="color: rgb(185,194,92)"><use href="#p0" x="0" y="0" width="48" height="48"/></g>
  <g transform="translate(192,96)" style="color: rgb(245,151,99)"><use href="#p8" x="0" y="0" width="48" height="48"/></g>
  <g transform="translate(0,144)" style="color: rgb(118,178,234)"><use href="#p2" x="0" y="0" width="48" height="48"/></g>
  <g transform="translate(192,144)" style="color: rgb(251,70,243)"><use href="#p0" x="0" y="0" width="48" height="48"/></g>
  <g transform="translate(0,192)" style="color: rgb(189,75,236)"><use href="#p3" x="0" y="0" width="48" height="48"/></g>
  <g transform="translate(192,192)" style="color: rgb(166,239,37)"><use href="#p0" x="0" y="0" width="48" height="48"/></g>
  <g transform="translate(48,240)" style="color: rgb(105,89,2)"><use href="#p5" x="0" y="0" width="48" height="48"/></g>
  <g transform="translate(96,240)" style="color: rgb(91,23,249)"><use href="#p0" x="0" y="0" width="48" height="48"/></g>
  <g transform="translate(144,240)" style="color: rgb(158,24,2)"><use href="#p0" x="0" y="0" width="48" height="48"/></g>
  <g transform="translate(192,240)" style="color: rgb(242,217,138)"><use href="#p0" x="0" y="0" width="48" height="48"/></g>
  <g transform="translate(192,288)" style="color: rgb(136,136,160)"><use href="#p0" x="0" y="0" width="48" height="48"/></g>
  <g transform="translate(192,336)" style="color: rgb(117,24,39)"><use href="#p3" x="0" y="0" width="48" height="48"/></g>
</svg>
