<svg xmlns="http://www.w3.org/2000/svg" width="240" height="432" viewBox="0 0 240 432">
  <defs>
    <symbol id="p0" viewBox="0 0 48 48">
      <rect x="0" y="0" width="48" height="48" fill="currentColor"/>
    </symbol>
    <symbol id="p1" viewBox="0 0 48 48">
      <circle cx="24" cy="24" r="24" fill="currentColor"/>
    </symbol>
    <symbol id="p2" viewBox="0 0 48 48">
      <path d="M 48 48 A 24 24 0 0 0 0 48 Z" fill="currentColor"/>
    </symbol>
    <symbol id="p3" viewBox="0 0 48 48">
      <path d="M 0 0 A 24 24 0 0 0 48 0 Z" fill="currentColor"/>
    </symbol>
    <symbol id="p4" viewBox="0 0 48 48">
      <path d="M 0 48 A 24 24 0 0 0 0 0 Z" fill="currentColor"/>
    </symbol>
    <symbol id="p5" viewBox="0 0 48 48">
      <path d="M 48 0 A 24 24 0 0 0 48 48 Z" fill="currentColor"/>
    </symbol>
    <symbol id="p6" viewBox="0 0 48 48">
      <path d="M 48 0 L 48 48 A 48 48 0 0 1 0 0 Z" fill="currentColor"/>
    </symbol>
    <symbol id="p7" viewBox="0 0 48 48">
      <path d="M 48 48 L 0 48 A 48 48 0 0 1 48 0 Z" fill="currentColor"/>
    </symbol>
    <symbol id="p8" viewBox="0 0 48 48">
      <path d="M 0 48 L 0 0 A 48 48 0 0 1 48 48 Z" fill="currentColor"/>
    </symbol>
    <symbol id="p9" viewBox="0 0 48 48">
      <path d="M 0 0 L 48 0 A 48 48 0 0 1 0 48 Z" fill="currentColor"/>
    </symbol>
  </defs>

  <g transform="translate(96,0)" style="color: rgb(153,144,211)"><use href="#p1" x="0" y="0" width="48" height="48"/></g>
  <g transform="translate(48,96)" style="color: rgb(162,248,185)"><use href="#p5" x="0" y="0" width="48" height="48"/></g>
  <g transform="translate(96,96)" style="color: rgb(120,101,202)"><use href="#p8" x="0" y="0" width="48" height="48"/></g>
  <g transform="translate(96,144)" style="color: rgb(153,33,59)"><use href="#p0" x="0" y="0" width="48" height="48"/></g>
  <g transform="translate(96,192)" style="color: rgb(220,208,180)"><use href="#p0" x="0" y="0" width="48" height="48"/></g>
  <g transform="translate(96,240)" style="color: rgb(151,178,158)"><use href="#p0" x="0" y="0" width="48" height="48"/></g>
  <g transform="translate(48,288)" style="color: rgb(248,66,230)"><use href="#p5" x="0" y="0" width="48" height="48"/></g>
  <g transform="translate(96,288)" style="color: rgb(30,130,241)"><use href="#p0" x="0" y="0" width="48" height="48"/></g>
  <g transform="translate(144,288)" style="color: rgb(86,233,173)"><use href="#p4" x="0" y="0" width="48" height="48"/></g>
</svg>
