<svg xmlns="http://www.w3.org/2000/svg" width="240" height="432" viewBox="0 0 240 432">
  <defs>
    <symbol id="p0" viewBox="0 0 48 48">
      <rect x="0" y="0" width="48" height="48" fill="currentColor"/>
    </symbol>
    <symbol id="p1" viewBox="0 0 48 48">
      <circle cx="24" cy="24" r="24" fill="currentColor"/>
    </symbol>
    <symbol id="p2" viewBox="0 0 48 48">
      <path d="M 48 48 A 24 24 0 0 0 0 48 Z" fill="currentColor"/>
    </symbol>
    <symbol id="p3" viewBox="0 0 48 48">
      <path d="M 0 0 A 24 24 0 0 0 48 0 Z" fill="currentColor"/>
    </symbol>
    <symbol id="p4" viewBox="0 0 48 48">
      <path d="M 0 48 A 24 24 0 0 0 0 0 Z" fill="currentColor"/>
    </symbol>
    <symbol id="p5" viewBox="0 0 48 48">
      <path d="M 48 0 A 24 24 0 0 0 48 48 Z" fill="currentColor"/>
    </symbol>
    <symbol id="p6" viewBox="0 0 48 48">
      <path d="M 48 0 L 48 48 A 48 48 0 0 1 0 0 Z" fill="currentColor"/>
    </symbol>
    <symbol id="p7" viewBox="0 0 48 48">
      <path d="M 48 48 L 0 48 A 48 48 0 0 1 48 0 Z" fill="currentColor"/>
    </symbol>
    <symbol id="p8" viewBox="0 0 48 48">
      <path d="M 0 48 L 0 0 A 48 48 0 0 1 48 48 Z" fill="currentColor"/>
    </symbol>
    <symbol id="p9" viewBox="0 0 48 48">
      <path d="M 0 0 L 48 0 A 48 48 0 0 1 0 48 Z" fill="currentColor"/>
    </symbol>
  </defs>

  <g transform="translate(0,0)" style="color: rgb(82,189,70)"><use href="#p7" x="0" y="0" width="48" height="48"/></g>
  <g transform="translate(48,0)" style="color: rgb(36,65,222)"><use href="#p0" x="0" y="0" width="48" height="48"/></g>
  <g transform="translate(96,0)" style="color: rgb(66,178,126)"><use href="#p0" x="0" y="0" width="48" height="48"/></g>
  <g transform="translate(144,0)" style="color: rgb(187,29,100)"><use href="#p0" x="0" y="0" width="48" height="48"/></g>
  <g transform="translate(192,0)" style="color: rgb(59,237,57)"><use href="#p4" x="0" y="0" width="48" height="48"/></g>
  <g transform="translate(0,48)" style="color: rgb(240,99,116)"><use href="#p0" x="0" y="0" width="48" height="48"/></g>
  <g transform="translate(0,96)" style="color: rgb(134,68,114)"><use href="#p0" x="0" y="0" width="48" height="48"/></g>
  <g transform="translate(0,144)" style="color: rgb(6,111,48)"><use href="#p0" x="0" y="0" width="48" height="48"/></g>
  <g transform="translate(48,144)" style="color: rgb(120,51,135)"><use href="#p0" x="0" y="0" width="48" height="48"/></g>
  <g transform="translate(96,144)" style="color: rgb(204,80,80)"><use href="#p0" x="0" y="0" width="48" height="48"/></g>
  <g transform="translate(144,144)" style="color: rgb(168,9,84)"><use href="#p4" x="0" y="0" width="48" height="48"/></g>
  <g transform="translate(0,192)" style="color: rgb(74,176,229)"><use href="#p0" x="0" y="0" width="48" height="48"/></g>
  <g transform="translate(0,240)" style="color: rgb(82,166,113)"><use href="#p0" x="0" y="0" width="48" height="48"/></g>
  <g transform="translate(0,288)" style="color: rgb(124,219,98)"><use href="#p6" x="0" y="0" width="48" height="48"/></g>
  <g transform="translate(48,288)" style="color: rgb(65,185,133)"><use href="#p0" x="0" y="0" width="48" height="48"/></g>
  <g transform="translate(96,288)" style="color: rgb(82,177,153)"><use href="#p0" x="0" y="0" width="48" height="48"/></g>
  <g transform="translate(144,288)" style="color: rgb(103,146,244)"><use href="#p0" x="0" y="0" width="48" height="48"/></g>
  <g transform="translate(192,288)" style="color: rgb(189,179,91)"><use href="#p4" x="0" y="0" width="48" height="48"/></g>
</svg>
