<svg xmlns="http://www.w3.org/2000/svg" width="240" height="432" viewBox="0 0 240 432">
  <defs>
    <symbol id="p0" viewBox="0 0 48 48">
      <rect x="0" y="0" width="48" height="48" fill="currentColor"/>
    </symbol>
    <symbol id="p1" viewBox="0 0 48 48">
      <circle cx="24" cy="24" r="24" fill="currentColor"/>
    </symbol>
    <symbol id="p2" viewBox="0 0 48 48">
      <path d="M 48 48 A 24 24 0 0 0 0 48 Z" fill="currentColor"/>
    </symbol>
    <symbol id="p3" viewBox="0 0 48 48">
      <path d="M 0 0 A 24 24 0 0 0 48 0 Z" fill="currentColor"/>
    </symbol>
    <symbol id="p4" viewBox="0 0 48 48">
      <path d="M 0 48 A 24 24 0 0 0 0 0 Z" fill="currentColor"/>
    </symbol>
    <symbol id="p5" viewBox="0 0 48 48">
      <path d="M 48 0 A 24 24 0 0 0 48 48 Z" fill="currentColor"/>
    </symbol>
    <symbol id="p6" viewBox="0 0 48 48">
      <path d="M 48 0 L 48 48 A 48 48 0 0 1 0 0 Z" fill="currentColor"/>
    </symbol>
    <symbol id="p7" viewBox="0 0 48 48">
      <path d="M 48 48 L 0 48 A 48 48 0 0 1 48 0 Z" fill="currentColor"/>
    </symbol>
    <symbol id="p8" viewBox="0 0 48 48">
      <path d="M 0 48 L 0 0 A 48 48 0 0 1 48 48 Z" fill="currentColor"/>
    </symbol>
    <symbol id="p9" viewBox="0 0 48 48">
      <path d="M 0 0 L 48 0 A 48 48 0 0 1 0 48 Z" fill="currentColor"/>
    </symbol>
  </defs>

  <g transform="translate(0,0)" style="color: rgb(11,200,221)"><use href="#p5" x="0" y="0" width="48" height="48"/></g>
  <g transform="translate(48,0)" style="color: rgb(84,238,141)"><use href="#p0" x="0" y="0" width="48" height="48"/></g>
  <g transform="translate(96,0)" style="color: rgb(48,204,128)"><use href="#p0" x="0" y="0" width="48" height="48"/></g>
  <g transform="translate(144,0)" style="color: rgb(192,206,87)"><use href="#p0" x="0" y="0" width="48" height="48"/></g>
  <g transform="translate(192,0)" style="color: rgb(55,242,47)"><use href="#p8" x="0" y="0" width="48" height="48"/></g>
  <g transform="translate(192,48)" style="color: rgb(130,62,80)"><use href="#p3" x="0" y="0" width="48" height="48"/></g>
  <g transform="translate(144,96)" style="color: rgb(88,129,68)"><use href="#p1" x="0" y="0" width="48" height="48"/></g>
  <g transform="translate(96,144)" style="color: rgb(123,178,5)"><use href="#p1" x="0" y="0" width="48" height="48"/></g>
  <g transform="translate(48,192)" style="color: rgb(94,197,179)"><use href="#p1" x="0" y="0" width="48" height="48"/></g>
  <g transform="translate(0,240)" style="color: rgb(194,176,54)"><use href="#p2" x="0" y="0" width="48" height="48"/></g>
  <g transform="translate(0,288)" style="color: rgb(254,52,103)"><use href="#p6" x="0" y="0" width="48" height="48"/></g>
  <g transform="translate(48,288)" style="color: rgb(85,226,40)"><use href="#p0" x="0" y="0" width="48" height="48"/></g>
  <g transform="translate(96,288)" style="color: rgb(175,205,7)"><use href="#p0" x="0" y="0" width="48" height="48"/></g>
  <g transform="translate(144,288)" style="color: rgb(125,200,189)"><use href="#p0" x="0" y="0" width="48" height="48"/></g>
  <g transform="translate(192,288)" style="color: rgb(80,145,122)"><use href="#p4" x="0" y="0" width="48" height="48"/></g>
</svg>
