<svg xmlns="http://www.w3.org/2000/svg" width="144" height="432" viewBox="0 0 144 432">
  <!-- character: 1 (U+0031) -->
  <defs>
    <symbol id="p0" viewBox="0 0 48 48">
      <rect x="0" y="0" width="48" height="48" fill="currentColor"/>
    </symbol>
    <symbol id="p1" viewBox="0 0 48 48">
      <circle cx="24" cy="24" r="24" fill="currentColor"/>
    </symbol>
    <symbol id="p2" viewBox="0 0 48 48">
      <path d="M 48 48 A 24 24 0 0 0 0 48 Z" fill="currentColor"/>
    </symbol>
    <symbol id="p3" viewBox="0 0 48 48">
      <path d="M 0 0 A 24 24 0 0 0 48 0 Z" fill="currentColor"/>
    </symbol>
    <symbol id="p4" viewBox="0 0 48 48">
      <path d="M 0 48 A 24 24 0 0 0 0 0 Z" fill="currentColor"/>
    </symbol>
    <symbol id="p5" viewBox="0 0 48 48">
      <path d="M 48 0 A 24 24 0 0 0 48 48 Z" fill="currentColor"/>
    </symbol>
    <symbol id="p6" viewBox="0 0 48 48">
      <path d="M 48 0 L 48 48 A 48 48 0 0 1 0 0 Z" fill="currentColor"/>
    </symbol>
    <symbol id="p7" viewBox="0 0 48 48">
      <path d="M 48 48 L 0 48 A 48 48 0 0 1 48 0 Z" fill="currentColor"/>
    </symbol>
    <symbol id="p8" viewBox="0 0 48 48">
      <path d="M 0 48 L 0 0 A 48 48 0 0 1 48 48 Z" fill="currentColor"/>
    </symbol>
    <symbol id="p9" viewBox="0 0 48 48">
      <path d="M 0 0 L 48 0 A 48 48 0 0 1 0 48 Z" fill="currentColor"/>
    </symbol>
  </defs>
  <g transform="translate(48,0)" style="color: rgb(10,12,94)"><use href="#p2" x="0" y="0" width="48" height="48"/></g>
  <g transform="translate(0,48)" style="color: rgb(232,129,111)"><use href="#p5" x="0" y="0" width="48" height="48"/></g>
  <g transform="translate(48,48)" style="color: rgb(180,115,194)"><use href="#p0" x="0" y="0" width="48" height="48"/></g>
  <g transform="translate(48,96)" style="color: rgb(63,3,170)"><use href="#p0" x="0" y="0" width="48" height="48"/></g>
  <g transform="translate(48,144)" style="color: rgb(199,253,163)"><use href="#p0" x="0" y="0" width="48" height="48"/></g>
  <g transform="translate(48,192)" style="color: rgb(205,99,236)"><use href="#p0" x="0" y="0" width="48" height="48"/></g>
  <g transform="translate(48,240)" style="color: rgb(79,219,146)"><use href="#p0" x="0" y="0" width="48" height="48"/></g>
  <g transform="translate(0,288)" style="color: rgb(16,12,156)"><use href="#p5" x="0" y="0" width="48" height="48"/></g>
  <g transform="translate(48,288)" style="color: rgb(232,99,104)"><use href="#p0" x="0" y="0" width="48" height="48"/></g>
  <g transform="translate(96,288)" style="color: rgb(244,64,40)"><use href="#p4" x="0" y="0" width="48" height="48"/></g>
</svg>