<svg xmlns="http://www.w3.org/2000/svg" width="240" height="432" viewBox="0 0 240 432">
  <!-- character: S (U+0053) -->
  <defs>
    <symbol id="p0" viewBox="0 0 48 48">
      <rect x="0" y="0" width="48" height="48" fill="currentColor"/>
    </symbol>
    <symbol id="p1" viewBox="0 0 48 48">
      <circle cx="24" cy="24" r="24" fill="currentColor"/>
    </symbol>
    <symbol id="p2" viewBox="0 0 48 48">
      <path d="M 48 48 A 24 24 0 0 0 0 48 Z" fill="currentColor"/>
    </symbol>
    <symbol id="p3" viewBox="0 0 48 48">
      <path d="M 0 0 A 24 24 0 0 0 48 0 Z" fill="currentColor"/>
    </symbol>
    <symbol id="p4" viewBox="0 0 48 48">
      <path d="M 0 48 A 24 24 0 0 0 0 0 Z" fill="currentColor"/>
    </symbol>
    <symbol id="p5" viewBox="0 0 48 48">
      <path d="M 48 0 A 24 24 0 0 0 48 48 Z" fill="currentColor"/>
    </symbol>
    <symbol id="p6" viewBox="0 0 48 48">
      <path d="M 48 0 L 48 48 A 48 48 0 0 1 0 0 Z" fill="currentColor"/>
    </symbol>
    <symbol id="p7" viewBox="0 0 48 48">
      <path d="M 48 48 L 0 48 A 48 48 0 0 1 48 0 Z" fill="currentColor"/>
    </symbol>
    <symbol id="p8" viewBox="0 0 48 48">
      <path d="M 0 48 L 0 0 A 48 48 0 0 1 48 48 Z" fill="currentColor"/>
    </symbol>
    <symbol id="p9" viewBox="0 0 48 48">
      <path d="M 0 0 L 48 0 A 48 48 0 0 1 0 48 Z" fill="currentColor"/>
    </symbol>
  </defs>
  <g transform="translate(48,0)" style="color: rgb(29,20,228)"><use href="#p7" x="0" y="0" width="48" height="48"/></g>
  <g transform="translate(96,0)" style="color: rgb(68,13,175)"><use href="#p0" x="0" y="0" width="48" height="48"/></g>
  <g transform="translate(144,0)" style="color: rgb(37,127,234)"><use href="#p0" x="0" y="0" width="48" height="48"/></g>
  <g transform="translate(192,0)" style="color: rgb(150,40,220)"><use href="#p4" x="0" y="0" width="48" height="48"/></g>
  <g transform="translate(0,48)" style="color: rgb(58,65,96)"><use href="#p7" x="0" y="0" width="48" height="48"/></g>
  <g transform="translate(48,48)" style="color: rgb(136,78,183)"><use href="#p9" x="0" y="0" width="48" height="48"/></g>
  <g transform="translate(0,96)" style="color: rgb(83,19,179)"><use href="#p0" x="0" y="0" width="48" height="48"/></g>
  <g transform="translate(0,144)" style="color: rgb(107,251,157)"><use href="#p6" x="0" y="0" width="48" height="48"/></g>
  <g transform="translate(48,144)" style="color: rgb(96,45,31)"><use href="#p0" x="0" y="0" width="48" height="48"/></g>
  <g transform="translate(96,144)" style="color: rgb(155,223,58)"><use href="#p0" x="0" y="0" width="48" height="48"/></g>
  <g transform="translate(144,144)" style="color: rgb(238,106,31)"><use href="#p0" x="0" y="0" width="48" height="48"/></g>
  <g transform="translate(192,144)" style="color: rgb(48,169,246)"><use href="#p8" x="0" y="0" width="48" height="48"/></g>
  <g transform="translate(192,192)" style="color: rgb(72,223,116)"><use href="#p0" x="0" y="0" width="48" height="48"/></g>
  <g transform="translate(144,240)" style="color: rgb(164,13,155)"><use href="#p7" x="0" y="0" width="48" height="48"/></g>
  <g transform="translate(192,240)" style="color: rgb(103,231,209)"><use href="#p9" x="0" y="0" width="48" height="48"/></g>
  <g transform="translate(0,288)" style="color: rgb(185,250,124)"><use href="#p5" x="0" y="0" width="48" height="48"/></g>
  <g transform="translate(48,288)" style="color: rgb(35,26,10)"><use href="#p0" x="0" y="0" width="48" height="48"/></g>
  <g transform="translate(96,288)" style="color: rgb(27,245,99)"><use href="#p0" x="0" y="0" width="48" height="48"/></g>
  <g transform="translate(144,288)" style="color: rgb(198,149,13)"><use href="#p9" x="0" y="0" width="48" height="48"/></g>
</svg>