<svg xmlns="http://www.w3.org/2000/svg" width="240" height="432" viewBox="0 0 240 432">
  <!-- character: Y (U+0059) -->
  <defs>
    <symbol id="p0" viewBox="0 0 48 48">
      <rect x="0" y="0" width="48" height="48" fill="currentColor"/>
    </symbol>
    <symbol id="p1" viewBox="0 0 48 48">
      <circle cx="24" cy="24" r="24" fill="currentColor"/>
    </symbol>
    <symbol id="p2" viewBox="0 0 48 48">
      <path d="M 48 48 A 24 24 0 0 0 0 48 Z" fill="currentColor"/>
    </symbol>
    <symbol id="p3" viewBox="0 0 48 48">
      <path d="M 0 0 A 24 24 0 0 0 48 0 Z" fill="currentColor"/>
    </symbol>
    <symbol id="p4" viewBox="0 0 48 48">
      <path d="M 0 48 A 24 24 0 0 0 0 0 Z" fill="currentColor"/>
    </symbol>
    <symbol id="p5" viewBox="0 0 48 48">
      <path d="M 48 0 A 24 24 0 0 0 48 48 Z" fill="currentColor"/>
    </symbol>
    <symbol id="p6" viewBox="0 0 48 48">
      <path d="M 48 0 L 48 48 A 48 48 0 0 1 0 0 Z" fill="currentColor"/>
    </symbol>
    <symbol id="p7" viewBox="0 0 48 48">
      <path d="M 48 48 L 0 48 A 48 48 0 0 1 48 0 Z" fill="currentColor"/>
    </symbol>
    <symbol id="p8" viewBox="0 0 48 48">
      <path d="M 0 48 L 0 0 A 48 48 0 0 1 48 48 Z" fill="currentColor"/>
    </symbol>
    <symbol id="p9" viewBox="0 0 48 48">
      <path d="M 0 0 L 48 0 A 48 48 0 0 1 0 48 Z" fill="currentColor"/>
    </symbol>
  </defs>
  <g transform="translate(0,0)" style="color: rgb(50,23,147)"><use href="#p2" x="0" y="0" width="48" height="48"/></g>
  <g transform="translate(192,0)" style="color: rgb(105,248,155)"><use href="#p2" x="0" y="0" width="48" height="48"/></g>
  <g transform="translate(0,48)" style="color: rgb(229,109,217)"><use href="#p0" x="0" y="0" width="48" height="48"/></g>
  <g transform="translate(192,48)" style="color: rgb(23,167,38)"><use href="#p0" x="0" y="0" width="48" height="48"/></g>
  <g transform="translate(0,96)" style="color: rgb(213,44,186)"><use href="#p6" x="0" y="0" width="48" height="48"/></g>
  <g transform="translate(48,96)" style="color: rgb(124,105,58)"><use href="#p8" x="0" y="0" width="48" height="48"/></g>
  <g transform="translate(144,96)" style="color: rgb(155,246,156)"><use href="#p7" x="0" y="0" width="48" height="48"/></g>
  <g transform="translate(192,96)" style="color: rgb(23,183,31)"><use href="#p9" x="0" y="0" width="48" height="48"/></g>
  <g transform="translate(48,144)" style="color: rgb(247,155,100)"><use href="#p6" x="0" y="0" width="48" height="48"/></g>
  <g transform="translate(96,144)" style="color: rgb(70,3,177)"><use href="#p0" x="0" y="0" width="48" height="48"/></g>
  <g transform="translate(144,144)" style="color: rgb(3,250,18)"><use href="#p9" x="0" y="0" width="48" height="48"/></g>
  <g transform="translate(96,192)" style="color: rgb(42,149,64)"><use href="#p0" x="0" y="0" width="48" height="48"/></g>
  <g transform="translate(96,240)" style="color: rgb(190,19,110)"><use href="#p0" x="0" y="0" width="48" height="48"/></g>
  <g transform="translate(96,288)" style="color: rgb(78,141,68)"><use href="#p3" x="0" y="0" width="48" height="48"/></g>
</svg>