<svg xmlns="http://www.w3.org/2000/svg" width="240" height="432" viewBox="0 0 240 432">
  <!-- character: N (U+004E) -->
  <defs>
    <symbol id="p0" viewBox="0 0 48 48">
      <rect x="0" y="0" width="48" height="48" fill="currentColor"/>
    </symbol>
    <symbol id="p1" viewBox="0 0 48 48">
      <circle cx="24" cy="24" r="24" fill="currentColor"/>
    </symbol>
    <symbol id="p2" viewBox="0 0 48 48">
      <path d="M 48 48 A 24 24 0 0 0 0 48 Z" fill="currentColor"/>
    </symbol>
    <symbol id="p3" viewBox="0 0 48 48">
      <path d="M 0 0 A 24 24 0 0 0 48 0 Z" fill="currentColor"/>
    </symbol>
    <symbol id="p4" viewBox="0 0 48 48">
      <path d="M 0 48 A 24 24 0 0 0 0 0 Z" fill="currentColor"/>
    </symbol>
    <symbol id="p5" viewBox="0 0 48 48">
      <path d="M 48 0 A 24 24 0 0 0 48 48 Z" fill="currentColor"/>
    </symbol>
    <symbol id="p6" viewBox="0 0 48 48">
      <path d="M 48 0 L 48 48 A 48 48 0 0 1 0 0 Z" fill="currentColor"/>
    </symbol>
    <symbol id="p7" viewBox="0 0 48 48">
      <path d="M 48 48 L 0 48 A 48 48 0 0 1 48 0 Z" fill="currentColor"/>
    </symbol>
    <symbol id="p8" viewBox="0 0 48 48">
      <path d="M 0 48 L 0 0 A 48 48 0 0 1 48 48 Z" fill="currentColor"/>
    </symbol>
    <symbol id="p9" viewBox="0 0 48 48">
      <path d="M 0 0 L 48 0 A 48 48 0 0 1 0 48 Z" fill="currentColor"/>
    </symbol>
  </defs>
  <g transform="translate(0,0)" style="color: rgb(204,210,11)"><use href="#p7" x="0" y="0" width="48" height="48"/></g>
  <g transform="translate(48,0)" style="color: rgb(189,200,9)"><use href="#p8" x="0" y="0" width="48" height="48"/></g>
  <g transform="translate(192,0)" style="color: rgb(87,163,79)"><use href="#p2" x="0" y="0" width="48" height="48"/></g>
  <g transform="translate(0,48)" style="color: rgb(24,212,7)"><use href="#p0" x="0" y="0" width="48" height="48"/></g>
  <g transform="translate(48,48)" style="color: rgb(236,126,65)"><use href="#p0" x="0" y="0" width="48" height="48"/></g>
  <g transform="translate(96,48)" style="color: rgb(189,229,139)"><use href="#p8" x="0" y="0" width="48" height="48"/></g>
  <g transform="translate(192,48)" style="color: rgb(114,82,8)"><use href="#p0" x="0" y="0" width="48" height="48"/></g>
  <g transform="translate(0,96)" style="color: rgb(69,158,252)"><use href="#p0" x="0" y="0" width="48" height="48"/></g>
  <g transform="translate(96,96)" style="color: rgb(215,90,147)"><use href="#p0" x="0" y="0" width="48" height="48"/></g>
  <g transform="translate(192,96)" style="color: rgb(216,118,11)"><use href="#p0" x="0" y="0" width="48" height="48"/></g>
  <g transform="translate(0,144)" style="color: rgb(9,9,249)"><use href="#p0" x="0" y="0" width="48" height="48"/></g>
  <g transform="translate(96,144)" style="color: rgb(85,200,59)"><use href="#p6" x="0" y="0" width="48" height="48"/></g>
  <g transform="translate(144,144)" style="color: rgb(167,162,160)"><use href="#p0" x="0" y="0" width="48" height="48"/></g>
  <g transform="translate(192,144)" style="color: rgb(151,195,102)"><use href="#p0" x="0" y="0" width="48" height="48"/></g>
  <g transform="translate(0,192)" style="color: rgb(95,33,45)"><use href="#p0" x="0" y="0" width="48" height="48"/></g>
  <g transform="translate(144,192)" style="color: rgb(62,61,62)"><use href="#p6" x="0" y="0" width="48" height="48"/></g>
  <g transform="translate(192,192)" style="color: rgb(184,121,43)"><use href="#p0" x="0" y="0" width="48" height="48"/></g>
  <g transform="translate(0,240)" style="color: rgb(71,182,73)"><use href="#p0" x="0" y="0" width="48" height="48"/></g>
  <g transform="translate(192,240)" style="color: rgb(74,92,122)"><use href="#p0" x="0" y="0" width="48" height="48"/></g>
  <g transform="translate(0,288)" style="color: rgb(9,81,113)"><use href="#p3" x="0" y="0" width="48" height="48"/></g>
  <g transform="translate(192,288)" style="color: rgb(126,0,194)"><use href="#p3" x="0" y="0" width="48" height="48"/></g>
</svg>